<?xml version="1.0" encoding="UTF-8" standalone="no"?>
<svg width="74px" height="49px" viewBox="0 0 74 49" version="1.1" xmlns="http://www.w3.org/2000/svg" xmlns:xlink="http://www.w3.org/1999/xlink">
    <!-- Generator: Sketch 3.6 (26304) - http://www.bohemiancoding.com/sketch -->
    <title>Group 8</title>
    <desc>Created with Sketch.</desc>
    <defs></defs>
    <g id="v2" stroke="none" stroke-width="1" fill="none" fill-rule="evenodd">
        <g id="Group-8" fill="#1D1D47">
            <g id="Page-1">
                <path d="M30.3921,8.3138 L30.3921,17.8318 L20.9341,17.8318 L20.9341,21.0038 L30.3921,21.0038 L30.3921,30.5218 L33.5451,30.5218 L33.5451,21.0038 L43.0031,21.0038 L43.0031,17.8318 L33.5451,17.8318 L33.5451,8.3138 L30.3921,8.3138 Z" id="Fill-1"></path>
                <path d="M0,-0.0004 L0,38.8346 L6.318,38.8346 L6.318,36.8346 L2,36.8346 L2,2.0006 L58.736,2.0006 L58.736,4.8296 L60.736,4.8296 L60.736,-0.0004 L0,-0.0004 Z" id="Fill-2"></path>
                <path d="M58.7354,36.835 L14.6354,36.835 L14.6354,38.835 L60.7354,38.835 L60.7354,11.999 L58.7354,11.999 L58.7354,36.835 Z" id="Fill-3"></path>
                <path d="M8.318,38.8345 L12.636,38.8345 L12.636,36.8345 L8.318,36.8345 L8.318,38.8345 Z" id="Fill-4"></path>
                <path d="M58.735,9.9995 L60.735,9.9995 L60.735,6.8305 L58.735,6.8305 L58.735,9.9995 Z" id="Fill-5"></path>
                <path d="M8.3179,41.6651 L8.3179,38.8351 L6.3179,38.8351 L6.3179,43.6651 L12.6359,43.6651 L12.6359,41.6651 L8.3179,41.6651 Z" id="Fill-6"></path>
                <path d="M65.0532,41.6651 L14.6362,41.6651 L14.6362,43.6651 L67.0532,43.6651 L67.0532,11.9991 L65.0532,11.9991 L65.0532,41.6651 Z" id="Fill-7"></path>
                <path d="M65.0532,6.8301 L65.0532,9.9991 L67.0532,9.9991 L67.0532,4.8301 L60.7352,4.8301 L60.7352,6.8301 L65.0532,6.8301 Z" id="Fill-8"></path>
                <path d="M6.318,38.8345 L8.318,38.8345 L8.318,36.8345 L6.318,36.8345 L6.318,38.8345 Z" id="Fill-9"></path>
                <path d="M58.735,6.8305 L60.735,6.8305 L60.735,4.8305 L58.735,4.8305 L58.735,6.8305 Z" id="Fill-10"></path>
                <path d="M67.0536,9.9995 L67.0536,11.9995 L71.3706,11.9995 L71.3706,46.8335 L14.6356,46.8345 L14.6356,43.6645 L12.6356,43.6645 L12.6356,48.8345 L73.3706,48.8335 L73.3706,9.9995 L67.0536,9.9995 Z" id="Fill-11"></path>
                <path d="M58.735,11.9995 L60.735,11.9995 L60.735,9.9995 L58.735,9.9995 L58.735,11.9995 Z" id="Fill-12"></path>
                <path d="M12.636,38.8345 L14.636,38.8345 L14.636,36.8345 L12.636,36.8345 L12.636,38.8345 Z" id="Fill-13"></path>
                <path d="M65.053,11.9995 L67.053,11.9995 L67.053,9.9995 L65.053,9.9995 L65.053,11.9995 Z" id="Fill-14"></path>
                <path d="M12.636,43.6655 L14.636,43.6655 L14.636,41.6655 L12.636,41.6655 L12.636,43.6655 Z" id="Fill-15"></path>
            </g>
        </g>
    </g>
</svg>